<svg xmlns="http://www.w3.org/2000/svg" viewBox="0 0 128 128" role="img" aria-label="Felix Platform">
  <defs>
    <linearGradient id="fp" x1="0" x2="1" y1="0" y2="1">
      <stop offset="0%" stop-color="#0f172a"/>
      <stop offset="100%" stop-color="#2563eb"/>
    </linearGradient>
  </defs>
  <rect width="128" height="128" rx="28" fill="url(#fp)"/>
  <circle cx="96" cy="32" r="10" fill="#93c5fd"/>
  <path d="M28 32h40v14H42v14h22v14H42v22H28V32zm50 0h22c12 0 20 7 20 18 0 8-4 14-11 17l13 29h-16L94 70h-2v26H78V32zm14 13v13h8c4 0 7-2 7-6s-3-7-7-7h-8z" fill="#f8fafc"/>
</svg>
